<svg width="1023" height="785" viewBox="0 0 1023 785" fill="none" xmlns="http://www.w3.org/2000/svg">
<g id="undraw_Ride_a_bicycle_2yok 1" clip-path="url(#clip0)">
<g id="Group">
<path id="Vector" opacity="0.1" d="M174.802 115.432C169.322 122.082 167.212 131.432 164.852 140.222C145.852 211.062 99.032 268.042 45.712 308.742C23.132 325.982 -4.358 349.102 0.582004 380.012C3.242 396.612 14.912 408.832 23.582 422.352C41.772 450.662 47.672 489.142 39.002 523.032C29.142 561.592 1.582 597.572 10.112 636.562C15.372 660.562 33.232 677.642 50.402 692.322C77.1887 715.209 104.829 736.649 133.322 756.642C152.422 770.042 172.742 783.082 195.002 784.782C214.602 786.282 233.802 778.832 252.412 771.482C268.672 765.052 285.342 758.362 298.472 745.482C307.042 737.072 313.872 726.222 323.392 719.342C345.752 703.182 374.472 713.422 400.112 720.342C460.612 736.582 525.362 730.652 582.932 703.602C671.242 662.102 738.552 574.952 824.932 528.192C862.072 508.082 902.472 495.602 936.862 469.702C956.237 454.955 972.887 436.938 986.062 416.462C1012.06 376.352 1026.12 325.212 1022.06 275.152C1018 225.092 995.252 176.852 959.522 148.592C921.272 118.342 872.962 112.692 829.442 94.532C784.502 75.772 744.522 43.532 700.012 23.402C663.996 7.15863 624.8 -0.815177 585.3 0.0655977C545.8 0.946372 506.998 10.6594 471.742 28.492C423.302 52.992 374.202 110.152 320.252 114.492C281.812 117.492 204.822 79.012 174.802 115.432Z" fill="#6C63FF"/>
<g id="wheelsRight">
<path id="Vector_2" d="M650.492 717.392L644.232 619.492L644.102 619.282L637.782 621.482L608.692 706.292L562.442 673.492L636.132 620.082L636.202 619.872L636.622 619.722L641.372 616.272L564.132 572.962L545.202 593.762L548.202 613.262L637.002 614.842V616.842L546.522 615.222L543.122 593.112L569.012 564.662L607.732 519.492L608.422 521.362L616.622 512.362L647.162 517.832V516.622L649.162 516.682V518.192L694.522 526.312L652.192 610.962L646.022 615.432V616.492L743.832 582.412L732.222 673.622L649.222 620.752L646.302 619.112L695.242 698.002L650.492 717.392ZM646.492 623.052L652.342 714.432L692.392 697.052L646.492 623.052ZM565.922 673.492L607.712 703.122L635.052 623.382L565.922 673.492ZM648.242 617.832L650.332 619.002L730.682 670.202L741.482 585.332L648.242 617.832ZM641.142 610.632L643.652 614.682L644.092 614.362L647.092 519.832L617.352 514.492L609.192 523.492L641.142 610.632ZM565.752 571.582L640.592 613.582L639.292 611.452L607.712 525.182L570.512 566.062L565.752 571.582ZM649.122 520.192L646.122 612.882L650.642 609.602L691.552 527.782L649.122 520.192Z" fill="#535461"/>
<path id="Vector_3" d="M645.402 498.612C634.789 498.6 624.222 500.026 613.992 502.852C608.716 504.307 603.549 506.135 598.532 508.322C571.802 519.909 550.319 540.999 538.239 567.51C526.159 594.021 524.341 624.071 533.137 651.845C541.932 679.62 560.716 703.145 585.854 717.871C610.993 732.596 640.699 737.475 669.227 731.564C697.754 725.652 723.076 709.371 740.293 685.869C757.51 662.367 765.399 633.314 762.434 604.332C759.468 575.35 745.859 548.497 724.24 528.968C702.62 509.44 674.526 498.624 645.392 498.612H645.402ZM645.002 704.702C624.721 704.694 605.053 697.748 589.264 685.019C573.476 672.29 562.517 654.543 558.207 634.725C553.897 614.907 556.496 594.211 565.573 576.075C574.649 557.938 589.656 543.452 608.102 535.022C612.794 532.874 617.666 531.144 622.662 529.852C634.874 526.682 647.621 526.149 660.056 528.289C672.49 530.429 684.325 535.193 694.775 542.263C705.225 549.334 714.049 558.549 720.66 569.295C727.271 580.041 731.518 592.071 733.118 604.587C734.718 617.102 733.634 629.814 729.938 641.877C726.242 653.941 720.02 665.079 711.685 674.55C703.349 684.022 693.092 691.61 681.596 696.808C670.1 702.007 657.629 704.698 645.012 704.702H645.002Z" fill="#535461"/>
</g>
<g id="wheelsLeft">
<path id="Vector_4" d="M224.302 713.992L218.032 616.052L217.902 615.842L211.582 618.042L182.502 702.892L136.252 670.102L209.922 616.692L209.992 616.482L210.412 616.332L215.162 612.882L137.922 569.572L119.002 590.372L122.002 609.872L210.822 611.492V613.492L120.342 611.872L116.922 589.732L142.822 561.272L181.572 516.072L182.262 517.942L190.462 508.942L220.922 514.402V513.192L222.922 513.252V514.762L268.282 522.882L225.992 607.492L219.822 611.962V613.022L317.622 578.942L306.012 670.152L223.012 617.282L220.092 615.642L269.032 694.522L224.302 713.992ZM220.302 619.652L226.152 711.032L266.202 693.652L220.302 619.652ZM139.722 670.082L181.512 699.712L208.852 619.972L139.722 670.082ZM222.042 614.422L224.132 615.592L304.482 666.792L315.282 581.922L222.042 614.422ZM214.942 607.222L217.452 611.272L217.892 610.952L220.892 516.422L191.152 511.102L182.992 520.102L214.942 607.222ZM139.522 568.162L214.362 610.162L213.062 608.032L181.482 521.762L144.292 562.632L139.522 568.162ZM222.922 516.772L219.922 609.492L224.442 606.212L265.352 524.392L222.922 516.772Z" fill="#535461"/>
<path id="Vector_5" d="M333.992 586.952C329.981 569.133 321.862 552.497 310.282 538.372C292.706 516.851 268.094 502.23 240.788 497.089C213.482 491.949 185.237 496.618 161.039 510.274C136.841 523.931 118.244 545.695 108.53 571.728C98.8166 597.76 98.6107 626.387 107.949 652.557C117.287 678.727 135.568 700.757 159.568 714.76C183.567 728.763 211.741 733.838 239.119 729.091C266.496 724.343 291.316 710.078 309.2 688.813C327.083 667.547 336.88 640.648 336.862 612.862C336.869 604.146 335.906 595.456 333.992 586.952ZM218.802 701.302C200.57 701.283 182.786 695.649 167.869 685.166C152.951 674.684 141.624 659.861 135.428 642.714C129.232 625.567 128.467 606.928 133.237 589.331C138.007 571.734 148.081 556.033 162.09 544.363C176.098 532.694 193.36 525.621 211.529 524.108C229.699 522.595 247.893 526.714 263.639 535.906C279.384 545.098 291.917 558.916 299.532 575.482C307.148 592.047 309.477 610.556 306.202 628.492C302.468 648.943 291.674 667.434 275.701 680.741C259.728 694.047 239.591 701.324 218.802 701.302Z" fill="#535461"/>
</g>
<g id="bikeDude">
<path id="Vector_6" d="M356.072 551.304L313.365 509.16L300.019 522.684L342.726 564.828L356.072 551.304Z" fill="#616163"/>
<path id="Vector_7" d="M323.552 488.992C323.552 488.992 348.342 475.912 357.922 467.492C363.689 462.446 369.89 457.919 376.452 453.962L407.552 435.032L472.552 430.032L475.552 441.032C475.552 441.032 480.552 457.032 430.552 471.032C380.552 485.032 355.552 507.032 355.552 507.032C355.552 507.032 323.552 517.992 323.552 488.992Z" fill="#DB8B8B"/>
<path id="Vector_8" opacity="0.1" d="M358.202 504.862C356.432 506.212 355.552 506.992 355.552 506.992C355.552 506.992 323.552 517.992 323.552 488.992C323.552 488.992 325.102 488.172 327.552 486.802C330.027 490.833 333.495 494.162 337.623 496.471C341.751 498.78 346.402 499.992 351.132 499.992H354.522L358.202 504.862Z" fill="black"/>
<path id="Vector_9" opacity="0.05" d="M474.612 446.552C471.832 452.442 462.242 462.122 430.552 470.992C389.942 482.362 365.822 498.992 358.202 504.862C356.432 506.212 355.552 506.992 355.552 506.992C355.552 506.992 323.552 517.992 323.552 488.992C323.552 488.992 325.102 488.172 327.552 486.802C334.982 482.732 350.712 473.802 357.892 467.452C363.658 462.405 369.859 457.877 376.422 453.922L407.522 434.992L419.102 434.102L472.522 429.992L475.522 440.992C475.522 440.992 476.222 443.142 474.612 446.552Z" fill="black"/>
<path id="Vector_10" d="M324.052 482.492L297.552 499.992L375.152 564.992C375.152 564.992 386.552 557.992 380.552 549.992C380.552 549.992 360.552 532.992 359.552 508.992L353.552 500.992H350.162C344.43 500.993 338.838 499.213 334.161 495.899C329.484 492.585 325.951 487.9 324.051 482.492H324.052Z" fill="#ABB1D1"/>
<path id="Vector_11" opacity="0.1" d="M474.612 446.552C458.612 438.822 419.552 437.992 419.552 437.992L419.132 434.102L472.552 429.992L475.552 440.992C475.552 440.992 476.222 443.142 474.612 446.552Z" fill="black"/>
<path id="Vector_12" d="M419.552 435.992C419.552 435.992 466.552 436.992 478.552 446.992L472.552 325.992H407.552L419.552 435.992Z" fill="#ABB1D1"/>
<path id="Vector_13" opacity="0.05" d="M419.552 435.492C419.552 435.492 466.552 436.492 478.552 446.492L472.552 325.492H407.552L419.552 435.492Z" fill="black"/>
<path id="Vector_14" d="M457.312 361.952C457.312 361.952 574.962 357.952 577.362 373.162C579.762 388.372 459.712 381.962 459.712 381.962C459.712 381.962 450.112 372.352 457.312 361.952Z" fill="#535461"/>
<path id="Vector_15" opacity="0.05" d="M457.312 361.952C457.312 361.952 574.962 357.952 577.362 373.162C579.762 388.372 459.712 381.962 459.712 381.962C459.712 381.962 450.112 372.352 457.312 361.952Z" fill="black"/>
<path id="Vector_16" d="M341.262 422.782H362.072V603.662H341.262V422.782Z" fill="#616163"/>
<path id="Vector_17" opacity="0.1" d="M362.072 422.772V436.702C355.152 437.602 348.072 438.172 341.262 438.392V422.772H362.072Z" fill="black"/>
<path id="Vector_18" d="M360.512 407.782C357.592 407.556 354.688 407.166 351.812 406.612C340.532 404.452 312.092 399.922 304.442 407.612C294.842 417.212 298.042 434.022 323.652 436.422C349.262 438.822 393.282 432.422 402.092 422.812C402.092 422.772 386.162 409.752 360.512 407.782Z" fill="#535461"/>
<path id="Vector_19" d="M356.472 472.402L574.972 404.372L582.172 421.182L358.072 498.012L356.472 472.402Z" fill="#616163"/>
<path id="Vector_20" d="M421.302 579.652L578.972 424.382L587.772 437.182L437.302 594.052L421.302 579.652Z" fill="#616163"/>
<path id="Vector_21" d="M649.402 605.262L638.202 611.662L560.062 393.332L556.562 383.562L574.972 373.152L579.582 387.532L649.402 605.262Z" fill="#616163"/>
<path id="Vector_22" d="M460.512 404.372L570.162 366.752C570.162 366.752 589.372 369.152 582.162 385.162L471.722 417.972C471.722 417.972 454.922 419.572 460.512 404.372Z" fill="#535461"/>
<path id="Vector_23" opacity="0.1" d="M362.072 603.652H341.262V585.652L362.072 603.652Z" fill="black"/>
<path id="Vector_24" d="M227.612 612.492C227.612 612.492 395.692 568.492 409.292 585.282C422.892 602.072 437.302 624.492 394.922 632.492C352.542 640.492 224.442 618.882 224.442 618.882L227.612 612.492Z" fill="#616163"/>
<path id="Vector_25" d="M222.012 603.662L347.662 472.402L351.672 502.812L228.412 615.662L222.012 603.662Z" fill="#616163"/>
<path id="Vector_26" d="M218.802 625.272C225.877 625.272 231.612 619.537 231.612 612.462C231.612 605.387 225.877 599.652 218.802 599.652C211.727 599.652 205.992 605.387 205.992 612.462C205.992 619.537 211.727 625.272 218.802 625.272Z" fill="#535461"/>
<path id="Vector_27" d="M645.002 625.672C652.077 625.672 657.812 619.937 657.812 612.862C657.812 605.787 652.077 600.052 645.002 600.052C637.927 600.052 632.192 605.787 632.192 612.862C632.192 619.937 637.927 625.672 645.002 625.672Z" fill="#535461"/>
<path id="Vector_28" opacity="0.1" d="M417.292 625.272C431.436 625.272 442.902 613.806 442.902 599.662C442.902 585.518 431.436 574.052 417.292 574.052C403.148 574.052 391.682 585.518 391.682 599.662C391.682 613.806 403.148 625.272 417.292 625.272Z" fill="black"/>
<path id="Vector_29" d="M418.902 625.272C433.046 625.272 444.512 613.806 444.512 599.662C444.512 585.518 433.046 574.052 418.902 574.052C404.758 574.052 393.292 585.518 393.292 599.662C393.292 613.806 404.758 625.272 418.902 625.272Z" fill="#535461"/>
<path id="Vector_30" d="M412.065 597.742L412.057 597.748C409.049 599.997 408.434 604.26 410.683 607.268L431.013 634.454C433.263 637.462 437.525 638.077 440.533 635.827L440.541 635.821C443.549 633.572 444.164 629.309 441.915 626.301L421.585 599.115C419.335 596.107 415.073 595.492 412.065 597.742Z" fill="#6C63FF"/>
<path id="Vector_31" d="M534.552 243.992L532.172 274.102C531.898 277.916 531.948 281.746 532.322 285.552C532.632 288.922 532.322 294.822 529.022 303.822C524.785 315.319 522.595 327.469 522.552 339.722V373.992L499.552 369.992C499.552 369.992 500.552 321.992 496.552 313.992C492.552 305.992 499.552 234.992 499.552 234.992L534.552 243.992Z" fill="#DB8B8B"/>
<path id="Vector_32" opacity="0.05" d="M533.372 258.912L532.172 274.102C531.902 277.913 531.955 281.74 532.332 285.542C532.642 288.912 532.332 294.812 529.032 303.822C524.795 315.319 522.605 327.469 522.562 339.722V373.992L499.562 369.992C499.562 369.992 500.562 321.992 496.562 313.992C493.732 308.322 496.412 271.052 498.222 249.782C498.972 241.032 499.562 234.992 499.562 234.992L534.562 243.992L533.372 258.912Z" fill="black"/>
<path id="Vector_33" d="M420.572 473.992L411.922 523.192C410.831 529.761 409.158 536.22 406.922 542.492C401.852 556.352 405.092 575.782 407.552 586.382C408.642 591.062 409.552 594.022 409.552 594.022L383.552 608.022L375.552 602.022V598.022L374.552 509.022C368.552 495.022 370.552 474.022 374.552 466.022C375.689 463.394 376.489 460.632 376.932 457.802C378.932 447.082 379.552 432.022 379.552 432.022C379.552 432.022 395.552 405.022 414.552 423.022C421.552 429.652 424.212 438.322 424.772 446.622C425.752 460.832 420.572 473.992 420.572 473.992Z" fill="#DB8B8B"/>
<path id="Vector_34" opacity="0.1" d="M424.772 446.592C410.902 454.832 386.772 457.162 376.932 457.772C378.932 447.052 379.552 431.992 379.552 431.992C379.552 431.992 395.552 404.992 414.552 422.992C421.552 429.622 424.212 438.292 424.772 446.592Z" fill="black"/>
<path id="Vector_35" d="M458.552 421.992C447.918 427.655 437.869 434.354 428.552 441.992C412.552 454.992 372.552 455.992 372.552 455.992V440.992C373.552 422.992 356.552 402.992 333.552 346.992C318.862 311.232 322.932 290.992 327.792 280.992C330.552 275.342 333.552 272.992 333.552 272.992L458.552 296.992L463.022 310.392L472.552 338.992C472.552 338.992 437.552 340.992 431.552 343.992C425.552 346.992 429.552 373.992 429.552 373.992C423.552 401.992 458.552 421.992 458.552 421.992Z" fill="#ABB1D1"/>
<path id="Vector_36" opacity="0.1" d="M534.552 243.992L533.372 258.912C515.972 263.912 503.552 247.992 503.552 247.992C501.737 248.479 499.954 249.076 498.212 249.782C498.962 241.032 499.552 234.992 499.552 234.992L534.552 243.992Z" fill="black"/>
<path id="Vector_37" opacity="0.1" d="M463.022 310.392C462.552 315.062 462.552 317.992 462.552 317.992C462.552 317.992 439.552 336.992 400.552 307.992C361.552 278.992 326.552 286.992 326.552 286.992C326.552 286.992 326.962 284.672 327.792 280.992C330.552 275.342 333.552 272.992 333.552 272.992L458.552 296.992L463.022 310.392Z" fill="black"/>
<path id="Vector_38" d="M548.032 204.942C545.422 225.292 544.552 250.942 544.552 250.942C521.552 268.942 503.552 245.942 503.552 245.942C481.832 251.772 471.622 270.782 466.812 287.372C464.236 296.346 462.804 305.609 462.552 314.942C462.552 314.942 456.472 319.942 445.272 320.942C434.682 321.832 419.502 319.072 400.552 304.942C361.552 275.942 326.552 283.942 326.552 283.942C326.552 283.942 333.552 243.942 349.552 231.942C365.552 219.942 377.552 204.942 397.552 158.942C417.552 112.942 458.552 123.942 458.552 123.942C458.552 123.942 460.552 114.942 497.552 123.942C506.564 126.304 514.906 130.723 521.922 136.852C541.712 153.492 551.312 179.302 548.032 204.942Z" fill="white"/>
<path id="Vector_39" d="M510.922 146.492C510.872 147.822 510.762 149.302 510.582 150.952C508.582 168.952 506.582 166.952 484.582 170.952C470.902 173.442 463.792 162.012 460.372 153.012C459.134 149.752 458.2 146.384 457.582 142.952L505.582 134.952C505.582 134.952 511.332 133.342 510.922 146.492Z" fill="#DB8B8B"/>
<path id="Vector_40" opacity="0.05" d="M466.812 287.422C464.236 296.396 462.804 305.659 462.552 314.992C462.552 314.992 456.472 319.992 445.272 320.992C444.956 320.355 444.715 319.684 444.552 318.992C442.552 309.992 427.552 293.992 427.552 293.992C417.552 284.992 415.552 268.992 415.552 268.992L399.052 220.492L393.552 215.992C393.552 215.992 416.552 197.992 436.552 212.992C456.552 227.992 450.552 259.992 450.552 259.992L454.552 270.992C458.702 274.492 462.922 280.662 466.812 287.422Z" fill="black"/>
<path id="Vector_41" d="M396.552 214.992L418.552 267.992C418.552 267.992 420.552 283.992 430.552 292.992C430.552 292.992 445.552 308.992 447.552 317.992C449.552 326.992 477.552 350.992 477.552 350.992C477.552 350.992 503.552 374.992 505.552 383.992C505.552 383.992 529.552 390.992 526.552 404.992C526.552 404.992 544.552 386.992 526.552 369.992C508.552 352.992 484.552 317.992 484.552 317.992C484.552 317.992 470.552 280.992 457.552 269.992L453.552 258.992C453.552 258.992 459.552 226.992 439.552 211.992C419.552 196.992 396.552 214.992 396.552 214.992Z" fill="#DB8B8B"/>
<path id="Vector_42" opacity="0.1" d="M409.552 593.992L383.552 607.992L375.552 601.992V597.992C384.536 597.354 393.265 594.72 401.102 590.282C403.502 588.922 405.762 587.582 407.572 586.402C408.622 591.032 409.552 593.992 409.552 593.992Z" fill="black"/>
<path id="Vector_43" opacity="0.1" d="M439.552 172.992L453.552 227.992C453.552 227.992 410.552 234.992 401.552 227.992C392.552 220.992 375.552 218.992 375.552 218.992C375.552 218.992 393.552 166.992 403.552 160.992C413.552 154.992 439.552 172.992 439.552 172.992Z" fill="black"/>
<path id="Vector_44" d="M439.552 170.992L453.552 225.992C453.552 225.992 410.552 232.992 401.552 225.992C392.552 218.992 375.552 216.992 375.552 216.992C375.552 216.992 393.552 164.992 403.552 158.992C413.552 152.992 439.552 170.992 439.552 170.992Z" fill="white"/>
<path id="Vector_45" opacity="0.1" d="M510.922 145.492C508.121 149.358 504.559 152.611 500.455 155.049C496.35 157.487 491.79 159.06 487.055 159.671C482.32 160.282 477.511 159.917 472.922 158.6C468.333 157.283 464.062 155.041 460.372 152.012C459.134 148.752 458.2 145.384 457.582 141.952L505.582 133.952C505.582 133.952 511.332 132.342 510.922 145.492Z" fill="black"/>
<path id="Vector_46" d="M517.552 123.992C517.552 133.275 513.864 142.177 507.301 148.741C500.737 155.304 491.835 158.992 482.552 158.992C473.269 158.992 464.367 155.304 457.803 148.741C451.24 142.177 447.552 133.275 447.552 123.992V122.252C447.651 117.646 448.659 113.104 450.517 108.888C452.375 104.672 455.047 100.864 458.38 97.6826C461.712 94.5012 465.64 92.0089 469.938 90.3485C474.236 88.6881 478.819 87.8924 483.425 88.0068C488.031 88.1213 492.569 89.1438 496.779 91.0157C500.989 92.8875 504.788 95.572 507.958 98.915C511.129 102.258 513.608 106.194 515.255 110.497C516.901 114.801 517.682 119.386 517.552 123.992Z" fill="#DB8B8B"/>
<path id="Vector_47" opacity="0.1" d="M517.552 123.992C517.555 127.218 517.111 130.428 516.232 133.532C513.527 134.122 510.705 133.863 508.152 132.792C504.412 131.322 501.202 128.792 497.612 126.972C487.502 121.852 475.472 122.862 464.272 124.552C458.712 125.392 452.402 126.172 448.032 122.632C447.882 122.513 447.738 122.387 447.602 122.252C447.701 117.646 448.709 113.104 450.567 108.888C452.425 104.672 455.097 100.864 458.43 97.6826C461.762 94.5012 465.69 92.0089 469.988 90.3485C474.286 88.6881 478.869 87.8924 483.475 88.0068C488.081 88.1213 492.619 89.1438 496.829 91.0157C501.039 92.8875 504.838 95.572 508.008 98.915C511.179 102.258 513.658 106.194 515.305 110.497C516.951 114.801 517.732 119.386 517.602 123.992H517.552Z" fill="black"/>
<path id="Vector_48" opacity="0.05" d="M354.052 231.492C354.052 231.492 380.052 238.492 388.052 256.492C396.052 274.492 417.692 277.782 417.692 277.782" fill="black"/>
<path id="Vector_49" d="M452.052 627.492H392.052V646.492H452.052V627.492Z" fill="#616163"/>
<path id="Vector_50" d="M401.062 592.232C406.432 589.232 411.142 586.232 411.552 584.992C411.552 584.992 425.102 599.292 437.172 603.732C441.23 605.231 445.116 607.162 448.762 609.492C453.542 612.492 460.362 616.022 466.552 616.022C466.552 616.022 480.552 628.022 453.552 630.022C426.552 632.022 363.552 625.022 363.552 625.022L367.552 600.022C379.239 600.707 390.876 598.002 401.062 592.232Z" fill="#ABB1D1"/>
</g>
<g id="hat">
<path id="Vector_51" d="M422.232 102.342C424.362 109.022 434.592 109.232 439.842 114.152C442.572 116.712 443.842 120.492 446.842 122.772C451.012 125.952 457.032 125.252 462.342 124.492C473.032 122.972 484.512 122.062 494.152 126.672C497.572 128.302 500.642 130.582 504.212 131.912C507.782 133.242 512.212 133.402 515.112 131.042C517.432 129.152 518.282 126.042 520.382 123.962C522.012 122.322 524.282 121.402 526.142 119.962C530.222 116.882 531.982 111.862 533.142 107.062C535.542 97.182 536.232 86.532 532.142 77.162C528.052 67.792 518.212 60.162 507.472 60.652C504.182 60.802 500.972 61.652 497.692 62.012C489.142 62.882 480.692 60.012 472.112 59.522C469.623 59.2191 467.099 59.5636 464.782 60.522C463.035 61.4928 461.529 62.8425 460.372 64.472C456.444 69.6174 453.754 75.5988 452.512 81.952C451.512 86.742 451.462 91.082 445.592 91.822C438.922 92.702 417.722 88.212 422.232 102.342Z" fill="#472727"/>
</g>
</g>
</g>
<defs>
<clipPath id="clip0">
<rect width="1022.75" height="784.976" fill="white"/>
</clipPath>
</defs>
</svg>
